<svg xmlns="http://www.w3.org/2000/svg" viewBox="0 0 34 34"><defs><style>.cls-1{fill:#df382b;}.cls-2{fill:#292728;}.cls-3{fill:#7f8082;}.cls-4{fill:none;}</style></defs><title>ic_stylish_vibe_34px</title><g id="Layer_2" data-name="Layer 2"><g id="Layer_1-2" data-name="Layer 1"><path class="cls-1" d="M13.5,13.14h7.07V16H13.5Z"/><path class="cls-2" d="M9.33,22.79a5.79,5.79,0,0,1,.16-11.59h.16a5.79,5.79,0,0,1-.16,11.59Z"/><path class="cls-1" d="M9.49,11.92h.15A5.09,5.09,0,0,1,9.5,22.1H9.36a5.09,5.09,0,0,1,.14-10.17m0-1.41a6.49,6.49,0,0,0-.18,13h.18a6.49,6.49,0,0,0,.18-13Z"/><path class="cls-3" d="M5.79,20.5a5.08,5.08,0,0,1,7.39-7"/><path class="cls-2" d="M24.34,22.79a5.79,5.79,0,0,1,.16-11.59h.16a5.79,5.79,0,0,1-.16,11.59Z"/><path class="cls-1" d="M24.51,11.92h.15a5.09,5.09,0,0,1-.14,10.17h-.15a5.09,5.09,0,0,1,.14-10.17m0-1.41a6.49,6.49,0,0,0-.18,13h.18a6.49,6.49,0,0,0,.18-13Z"/><path class="cls-3" d="M20.81,20.5a5.08,5.08,0,1,1,7.39-7"/><path class="cls-4" d="M0,0H34V34H0Z"/></g></g></svg>